<svg xmlns="http://www.w3.org/2000/svg" xmlns:xlink="http://www.w3.org/1999/xlink" width="180" height="45" viewBox="0 0 180 45">
  <defs>
    <clipPath id="clip-button_import">
      <rect width="180" height="45"/>
    </clipPath>
  </defs>
  <g id="button_import" clip-path="url(#clip-button_import)">
    <rect id="矩形_1" data-name="矩形 1" width="180" height="45" rx="5" fill="#008e8e"/>
    <text id="一键导入订阅" transform="translate(41 30)" fill="#fff" font-size="20" font-family="'\.PingFang-SC-Medium', '\.PingFang SC'" font-weight="500"><tspan x="0" y="0">一键导入订阅</tspan></text>
    <path id="路径_3" data-name="路径 3" d="M123.021,77.433l-3.857-2.69h-1.075v2.149h-4.3V79.04h4.3v2.149h1.075l3.859-2.69A.6.6,0,0,0,123.021,77.433Zm7.714-6.158-5.919-7.027a.826.826,0,0,0-.59-.247H115.94a.969.969,0,0,0-1.075,1.075v8.593h2.149V66.149h6.446V71.52a1.3,1.3,0,0,0,1.075,1.075h4.3l.015,8.593h-3.237v2.148h4.3a.969.969,0,0,0,1.075-1.075V71.868A.848.848,0,0,0,130.734,71.274Z" transform="translate(-100.792 -50.668)" fill="#fff"/>
  </g>
</svg>
