<svg xmlns="http://www.w3.org/2000/svg" xmlns:xlink="http://www.w3.org/1999/xlink" fill="none" version="1.1" width="150" height="45" viewBox="0 0 150 45"><defs><clipPath id="master_svg0_1_457"><rect x="0" y="0" width="150" height="45" rx="0"/></clipPath><clipPath id="master_svg1_1_42"><rect x="9" y="11" width="24" height="24" rx="0"/></clipPath></defs><g clip-path="url(#master_svg0_1_457)"><g><g><rect x="0" y="0" width="150" height="45" rx="5" fill="#6072FF" fill-opacity="1"/></g><g><g><path d="M45.01823,31L46.67839,31L46.67839,22.9271C46.67839,21.6771,46.55469,19.9128,46.4375,18.6432L46.51562,18.6432L47.69401,21.957L50.48047,29.5352L51.71745,29.5352L54.4779,21.957L55.6562,18.6432L55.740899999999996,18.6432C55.6367,19.9128,55.5,21.6771,55.5,22.9271L55.5,31L57.2188,31L57.2188,16.41667L54.9987,16.41667L52.19922,24.2161C51.86068,25.2122,51.55469,26.2409,51.177080000000004,27.25L51.09896,27.25C50.73438,26.2409,50.41536,25.2122,50.03776,24.2161L47.23828,16.41667L45.01823,16.41667L45.01823,31ZM63.585899999999995,31.4167C64.9271,31.4167,66.1445,30.7201,67.1862,29.8542L67.2448,29.8542L67.4076,31L68.9049,31L68.9049,24.2487C68.9049,21.5143,67.8047,19.75,65.1484,19.75C63.384100000000004,19.75,61.8672,20.5312,60.884100000000004,21.175800000000002L61.587199999999996,22.4453C62.446600000000004,21.8594,63.585899999999995,21.273400000000002,64.849,21.273400000000002C66.6263,21.273400000000002,67.0885,22.6276,67.0885,24.0469C62.4661,24.5677,60.428399999999996,25.7656,60.428399999999996,28.1484C60.428399999999996,30.2969,61.7695,31.4167,63.585899999999995,31.4167ZM64.10679999999999,29.9388C63.025999999999996,29.9388,62.1862,29.444,62.1862,28.168C62.1862,26.7227,63.4297,25.7917,67.0885,25.362L67.0885,28.474C66.0273,29.444,65.1484,29.9388,64.10679999999999,29.9388ZM76.6198,31.4167C77.9154,31.4167,79.1589,30.9023,80.1354,30.0625L79.3346,28.7865C78.6576,29.4049,77.7786,29.8997,76.77600000000001,29.8997C74.7773,29.8997,73.41669999999999,28.1875,73.41669999999999,25.6094C73.41669999999999,23.0247,74.8555,21.293,76.8346,21.293C77.6745,21.293,78.3776,21.6836,78.9961,22.262999999999998L79.92060000000001,21.032600000000002C79.1589,20.3555,78.17580000000001,19.75,76.7565,19.75C73.957,19.75,71.5352,21.8724,71.5352,25.6094C71.5352,29.3203,73.73570000000001,31.4167,76.6198,31.4167Z" fill="#FFFFFF" fill-opacity="1"/></g></g></g><g clip-path="url(#master_svg1_1_42)"><g><path d="M28.90139384765625,27.521035766601564C28.87699384765625,27.595035766601562,28.495893847656248,28.924235766601562,27.559593847656252,30.291135766601563C26.74919384765625,31.47013576660156,25.91119384765625,32.658735766601566,24.58759384765625,32.679635766601564C23.28609384765625,32.70243576660157,22.86958384765625,31.903035766601562,21.383553847656252,31.903035766601562C19.89941384765625,31.903035766601562,19.432833847656248,32.658735766601566,18.20278384765625,32.70243576660157C16.93118384765625,32.75453576660156,15.95269384765625,31.414535766601563,15.13921384765625,30.241235766601562C13.47668784765625,27.83773576660156,12.19657984765625,23.430335766601562,13.91340784765625,20.476605766601562C14.75811384765625,18.998745766601562,16.27640384765625,18.059355766601563,17.92977384765625,18.033685766601565C19.17572384765625,18.010135766601564,20.36117384765625,18.877725766601564,21.11793384765625,18.877725766601564C21.895383847656248,18.877725766601564,23.32939384765625,17.827935766601563,24.84229384765625,17.985005766601564C25.475693847656252,18.011985766601562,27.24749384765625,18.24980576660156,28.389093847656248,19.904325766601563C28.299193847656248,19.965435766601562,26.26909384765625,21.163495766601564,26.291693847656248,23.60183576660156C26.32219384765625,26.54553576660156,28.873893847656248,27.510935766601563,28.90139384765625,27.521035766601564ZM23.85229384765625,16.408185766601562C24.53449384765625,15.576005766601563,24.98279384765625,14.432075766601562,24.864893847656248,13.296035766601562C23.890793847656248,13.334241866601563,22.70399384765625,13.942925766601562,21.99866384765625,14.770175766601563C21.37501384765625,15.491915766601561,20.82532384765625,16.653665766601563,20.97863384765625,17.776505766601563C22.060923847656248,17.842245766601565,23.17379384765625,17.209745766601564,23.85229384765625,16.408185766601562Z" fill="#FFFFFF" fill-opacity="1"/></g></g></g></svg>