<svg xmlns="http://www.w3.org/2000/svg" xmlns:xlink="http://www.w3.org/1999/xlink" fill="none" version="1.1" width="150" height="45" viewBox="0 0 150 45"><defs><clipPath id="master_svg0_1_435"><rect x="0" y="0" width="150" height="45" rx="0"/></clipPath><clipPath id="master_svg1_1_34"><rect x="9" y="10" width="24" height="24" rx="0"/></clipPath></defs><g clip-path="url(#master_svg0_1_435)"><g><g><rect x="0" y="0" width="150" height="45" rx="5" fill="#6072FF" fill-opacity="1"/></g><g><g><path d="M43.078125,31L44.9401,31L46.35938,26.6315L51.71745,26.6315L53.1172,31L55.0768,31L50.09635,16.41667L48.03906,16.41667L43.078125,31ZM46.8151,25.1667L47.53776,22.901C48.05859,21.2344,48.54036,19.6458,48.99609,17.920569999999998L49.07422,17.920569999999998C49.55599,19.6263,50.01823,21.2344,50.55859,22.901L51.25521,25.1667L46.8151,25.1667ZM56.9193,35.5833L58.7617,35.5833L58.7617,32.0352L58.7031,30.1602C59.6797,30.9805,60.7214,31.4167,61.697900000000004,31.4167C64.1784,31.4167,66.418,29.2617,66.418,25.4206C66.418,21.957,64.901,19.75,62.101600000000005,19.75C60.838499999999996,19.75,59.6211,20.4727,58.638,21.293L58.599000000000004,21.293L58.4232,20.1667L56.9193,20.1667L56.9193,35.5833ZM61.398399999999995,29.8802C60.6823,29.8802,59.7188,29.5938,58.7617,28.7474L58.7617,22.8229C59.803399999999996,21.8333,60.740899999999996,21.293,61.6393,21.293C63.7227,21.293,64.5234,22.9466,64.5234,25.4401C64.5234,28.2396,63.2018,29.8802,61.398399999999995,29.8802ZM69.41929999999999,35.5833L71.2617,35.5833L71.2617,32.0352L71.2031,30.1602C72.1797,30.9805,73.2214,31.4167,74.1979,31.4167C76.67840000000001,31.4167,78.918,29.2617,78.918,25.4206C78.918,21.957,77.40100000000001,19.75,74.6016,19.75C73.3385,19.75,72.1211,20.4727,71.138,21.293L71.099,21.293L70.92320000000001,20.1667L69.41929999999999,20.1667L69.41929999999999,35.5833ZM73.8984,29.8802C73.1823,29.8802,72.2187,29.5938,71.2617,28.7474L71.2617,22.8229C72.3034,21.8333,73.2409,21.293,74.13929999999999,21.293C76.2227,21.293,77.02340000000001,22.9466,77.02340000000001,25.4401C77.02340000000001,28.2396,75.70179999999999,29.8802,73.8984,29.8802ZM86.1576,31.4167C89.22399999999999,31.4167,91.138,29.5742,91.138,27.2109C91.138,24.9844,89.8229,23.9688,88.1237,23.2135L86.0404,22.2956C84.90100000000001,21.807299999999998,83.59899999999999,21.2539,83.59899999999999,19.782600000000002C83.59899999999999,18.460900000000002,84.6797,17.621090000000002,86.3398,17.621090000000002C87.7005,17.621090000000002,88.7812,18.154899999999998,89.6797,19.0078L90.64320000000001,17.8099C89.6211,16.74219,88.0781,16,86.3398,16C83.6836,16,81.7174,17.621090000000002,81.7174,19.925800000000002C81.7174,22.113300000000002,83.33850000000001,23.168,84.69919999999999,23.7604L86.8021,24.6979C88.20179999999999,25.3359,89.263,25.8242,89.263,27.3737C89.263,28.819,88.1237,29.8021,86.1836,29.8021C84.6602,29.8021,83.1823,29.0664,82.1406,27.9466L81.0404,29.2487C82.30340000000001,30.5768,84.08070000000001,31.4167,86.1576,31.4167ZM97.40100000000001,31.4167C98.0846,31.4167,98.80080000000001,31.2214,99.42580000000001,31.0195L99.0612,29.6328C98.7031,29.7956,98.2214,29.9388,97.82419999999999,29.9388C96.5612,29.9388,96.1445,29.1706,96.1445,27.8294L96.1445,21.651L99.10679999999999,21.651L99.10679999999999,20.1667L96.1445,20.1667L96.1445,17.106769999999997L94.6211,17.106769999999997L94.42580000000001,20.1667L92.7005,20.2708L92.7005,21.651L94.32159999999999,21.651L94.32159999999999,27.7643C94.32159999999999,29.9779,95.1029,31.4167,97.40100000000001,31.4167ZM105.7214,31.4167C108.3841,31.4167,110.7474,29.3203,110.7474,25.6094C110.7474,21.8724,108.3841,19.75,105.7214,19.75C103.0651,19.75,100.70179999999999,21.8724,100.70179999999999,25.6094C100.70179999999999,29.3203,103.0651,31.4167,105.7214,31.4167ZM105.7214,29.8997C103.8464,29.8997,102.58330000000001,28.1875,102.58330000000001,25.6094C102.58330000000001,23.0247,103.8464,21.293,105.7214,21.293C107.6029,21.293,108.8854,23.0247,108.8854,25.6094C108.8854,28.1875,107.6029,29.8997,105.7214,29.8997ZM113.5859,31L115.4284,31L115.4284,23.942700000000002C116.1445,22.0807,117.2448,21.3906,118.1497,21.3906C118.6055,21.3906,118.8464,21.4557,119.2044,21.5729L119.5495,20.1667C119.2044,19.8151,118.8659,19.75,118.3841,19.75C117.1862,19.75,116.0664,20.6354,115.3047,22.022100000000002L115.2656,22.022100000000002L115.0898,20.1667L113.5859,20.1667L113.5859,31ZM125.9036,31.4167C127.362,31.4167,128.5273,30.9414,129.4648,30.3229L128.8268,29.0664C128.00650000000002,29.6263,127.1667,29.9583,126.1055,29.9583C124.0417,29.9583,122.6224,28.4219,122.5052,26L129.8229,26C129.862,25.7201,129.9075,25.362,129.9075,24.9648C129.9075,21.7682,128.345,19.75,125.5651,19.75C123.0846,19.75,120.7018,21.957,120.7018,25.5833C120.7018,29.2943,123.0065,31.4167,125.9036,31.4167ZM122.4857,24.7044C122.7005,22.4714,124.0612,21.2148,125.6042,21.2148C127.3034,21.2148,128.30599999999998,22.432299999999998,128.30599999999998,24.7044L122.4857,24.7044Z" fill="#FFFFFF" fill-opacity="1"/></g></g></g><g clip-path="url(#master_svg1_1_34)"><g><path d="M21,12.25C15.61406,12.25,11.25,16.614060000000002,11.25,22C11.25,27.3859,15.61406,31.75,21,31.75C26.3859,31.75,30.75,27.3859,30.75,22C30.75,16.614060000000002,26.3859,12.25,21,12.25ZM17.301560000000002,26.1672C17.175,26.3828,16.95,26.5,16.71563,26.5C16.59844,26.5,16.48125,26.471899999999998,16.373440000000002,26.4062C16.05,26.2188,15.94219,25.8063,16.12969,25.482799999999997L16.79531,24.3766C16.86563,24.2594,16.9875,24.1891,17.123440000000002,24.1891L17.22188,24.1891C17.70469,24.1891,18.042189999999998,24.4797,18.14063,24.7609L17.301560000000002,26.1672ZM22.9359,23.9922L18.57656,23.9969L15.67969,23.9969C15.29531,23.9969,14.98594,23.6781,15.00469,23.293799999999997C15.01875,22.9281,15.3375,22.651600000000002,15.70312,22.651600000000002L17.80312,22.651600000000002L20.292189999999998,18.41406L19.48594,17.04062C19.30313,16.72656,19.38281,16.314059999999998,19.69219,16.11719C20.020310000000002,15.90625,20.45156,16.01406,20.64375,16.342190000000002L21.075,17.07812L21.07969,17.07812L21.5109,16.342190000000002C21.7031,16.01406,22.1391,15.90625,22.4625,16.11719C22.771900000000002,16.314059999999998,22.851599999999998,16.72656,22.668799999999997,17.04062L21.8625,18.41406L21.07969,19.75L19.37812,22.651600000000002L19.37812,22.6562L21.8859,22.6562C22.2,22.6562,22.5937,22.825,22.7531,23.096899999999998L22.767200000000003,23.125C22.9078,23.3641,22.9875,23.528100000000002,22.9875,23.767200000000003Q22.982799999999997,23.898400000000002,22.9359,23.9922ZM26.3203,23.9969L25.1391,23.9969L25.1391,24.0016L26.0016,25.4688C26.1891,25.7875,26.1,26.209400000000002,25.776600000000002,26.4062C25.668799999999997,26.471899999999998,25.5469,26.5047,25.425,26.5047C25.1906,26.5047,24.965600000000002,26.3828,24.839100000000002,26.1719L23.5641,24.0016L22.771900000000002,22.651600000000002L21.75,20.90313C21.45,20.39219,21.4359,19.75469,21.721899999999998,19.248440000000002Q21.9234,18.89219,22.0781,18.79844L24.351599999999998,22.646900000000002L26.3063,22.646900000000002C26.6719,22.646900000000002,26.9859,22.9281,27.0047,23.289099999999998C27.018700000000003,23.6781,26.709400000000002,23.9969,26.3203,23.9969Z" fill="#FFFFFF" fill-opacity="1"/></g></g></g></svg>