<svg xmlns="http://www.w3.org/2000/svg" xmlns:xlink="http://www.w3.org/1999/xlink" fill="none" version="1.1" width="150" height="45" viewBox="0 0 150 45"><defs><clipPath id="master_svg0_1_248"><rect x="0" y="0" width="150" height="45" rx="0"/></clipPath><clipPath id="master_svg1_1_30"><rect x="9" y="10" width="24" height="24" rx="0"/></clipPath></defs><g clip-path="url(#master_svg0_1_248)"><g><g><rect x="0" y="0" width="150" height="45" rx="5" fill="#6072FF" fill-opacity="1"/></g><g><g><path d="M43.078125,31L44.9401,31L46.35938,26.6315L51.71745,26.6315L53.1172,31L55.0768,31L50.09635,16.41667L48.03906,16.41667L43.078125,31ZM46.8151,25.1667L47.53776,22.901C48.05859,21.2344,48.54036,19.6458,48.99609,17.920569999999998L49.07422,17.920569999999998C49.55599,19.6263,50.01823,21.2344,50.55859,22.901L51.25521,25.1667L46.8151,25.1667ZM56.9193,31L58.7617,31L58.7617,23.0312C59.8424,21.918,60.5977,21.351599999999998,61.7174,21.351599999999998C63.162800000000004,21.351599999999998,63.7812,22.224,63.7812,24.2878L63.7812,31L65.60419999999999,31L65.60419999999999,24.0469C65.60419999999999,21.2539,64.5625,19.75,62.2839,19.75C60.799499999999995,19.75,59.6602,20.5703,58.638,21.618499999999997L58.599000000000004,21.618499999999997L58.4232,20.1667L56.9193,20.1667L56.9193,31ZM72.707,31.4167C74.0026,31.4167,75.16149999999999,30.7201,76.0013,29.8802L76.0664,29.8802L76.2227,31L77.72659999999999,31L77.72659999999999,14.97136L75.88409999999999,14.97136L75.88409999999999,19.151L75.98179999999999,21.012999999999998C75.0247,20.2318,74.20439999999999,19.75,72.9219,19.75C70.4414,19.75,68.2214,21.957,68.2214,25.5182C68.2214,29.3464,69.98570000000001,31.4167,72.707,31.4167ZM73.10419999999999,29.8802C71.2031,29.8802,70.1029,28.2917,70.1029,25.5898C70.1029,23.0312,71.5026,21.293,73.2409,21.293C74.14580000000001,21.293,74.98570000000001,21.625,75.88409999999999,22.4714L75.88409999999999,28.3503C74.98570000000001,29.3854,74.10679999999999,29.8802,73.10419999999999,29.8802ZM81.5026,31L83.3451,31L83.3451,23.942700000000002C84.0612,22.0807,85.16149999999999,21.3906,86.0664,21.3906C86.5221,21.3906,86.763,21.4557,87.1211,21.5729L87.4661,20.1667C87.1211,19.8151,86.7826,19.75,86.30080000000001,19.75C85.1029,19.75,83.98310000000001,20.6354,83.2214,22.022100000000002L83.1823,22.022100000000002L83.0065,20.1667L81.5026,20.1667L81.5026,31ZM93.638,31.4167C96.30080000000001,31.4167,98.66409999999999,29.3203,98.66409999999999,25.6094C98.66409999999999,21.8724,96.30080000000001,19.75,93.638,19.75C90.98179999999999,19.75,88.6185,21.8724,88.6185,25.6094C88.6185,29.3203,90.98179999999999,31.4167,93.638,31.4167ZM93.638,29.8997C91.763,29.8997,90.5,28.1875,90.5,25.6094C90.5,23.0247,91.763,21.293,93.638,21.293C95.5195,21.293,96.8021,23.0247,96.8021,25.6094C96.8021,28.1875,95.5195,29.8997,93.638,29.8997ZM101.5026,31L103.3451,31L103.3451,20.1667L101.5026,20.1667L101.5026,31ZM102.42060000000001,17.985680000000002C103.14320000000001,17.985680000000002,103.6445,17.503909999999998,103.6445,16.768230000000003C103.6445,16.0651,103.14320000000001,15.58333,102.42060000000001,15.58333C101.70439999999999,15.58333,101.2227,16.0651,101.2227,16.768230000000003C101.2227,17.503909999999998,101.70439999999999,17.985680000000002,102.42060000000001,17.985680000000002ZM110.6237,31.4167C111.9193,31.4167,113.0781,30.7201,113.918,29.8802L113.9831,29.8802L114.1393,31L115.6432,31L115.6432,14.97136L113.8008,14.97136L113.8008,19.151L113.8984,21.012999999999998C112.9414,20.2318,112.1211,19.75,110.8385,19.75C108.3581,19.75,106.138,21.957,106.138,25.5182C106.138,29.3464,107.9023,31.4167,110.6237,31.4167ZM111.0208,29.8802C109.1198,29.8802,108.0195,28.2917,108.0195,25.5898C108.0195,23.0312,109.4193,21.293,111.1575,21.293C112.0625,21.293,112.9023,21.625,113.8008,22.4714L113.8008,28.3503C112.9023,29.3854,112.0234,29.8802,111.0208,29.8802Z" fill="#FFFFFF" fill-opacity="1"/></g></g></g><g clip-path="url(#master_svg1_1_30)"><g><path d="M18.174121650390624,16.46873917480469Q18.388411650390626,16.46873917480469,18.542421650390626,16.31472917480469Q18.696441650390625,16.160709174804687,18.696441650390625,15.946419174804689Q18.696441650390625,15.732139174804686,18.542421650390626,15.578119174804687Q18.388411650390626,15.424099174804688,18.174121650390624,15.424099174804688Q17.959831650390626,15.424099174804688,17.812511650390626,15.578119174804687Q17.665191650390625,15.732139174804686,17.665191650390625,15.946419174804689Q17.665191650390625,16.160709174804687,17.812511650390626,16.31472917480469Q17.959831650390626,16.46873917480469,18.174121650390624,16.46873917480469ZM23.825941650390625,16.46873917480469Q24.040241650390627,16.46873917480469,24.187541650390624,16.31472917480469Q24.334841650390626,16.160709174804687,24.334841650390626,15.946419174804689Q24.334841650390626,15.732139174804686,24.187541650390624,15.578119174804687Q24.040241650390627,15.424099174804688,23.825941650390625,15.424099174804688Q23.611641650390624,15.424099174804688,23.457641650390627,15.578119174804687Q23.303541650390628,15.732139174804686,23.303541650390628,15.946419174804689Q23.303541650390628,16.160709174804687,23.457641650390627,16.31472917480469Q23.611641650390624,16.46873917480469,23.825941650390625,16.46873917480469ZM12.950901650390625,18.933029174804688Q13.513401650390625,18.933029174804688,13.915191650390625,19.334819174804686Q14.316981650390625,19.736599174804688,14.316981650390625,20.299099174804688L14.316981650390625,26.05807917480469Q14.316981650390625,26.63387917480469,13.921891650390625,27.035679174804688Q13.526801650390626,27.437479174804686,12.950901650390625,27.437479174804686Q12.375013650390624,27.437479174804686,11.973227650390625,27.035679174804688Q11.571441650390625,26.63387917480469,11.571441650390625,26.05807917480469L11.571441650390625,20.299099174804688Q11.571441650390625,19.736599174804688,11.973227650390625,19.334809174804686Q12.375012650390625,18.933029174804688,12.950901650390625,18.933029174804688ZM27.147341650390626,19.18749917480469L27.147341650390626,28.10717917480469Q27.147341650390626,28.723179174804688,26.718741650390626,29.151779174804688Q26.290241650390627,29.580379174804687,25.687541650390624,29.580379174804687L24.683041650390624,29.580379174804687L24.683041650390624,32.620479174804686Q24.683041650390624,33.19637917480469,24.281241650390626,33.598179174804685Q23.879441650390625,33.999979174804686,23.303541650390628,33.999979174804686Q22.727741650390627,33.999979174804686,22.325941650390625,33.598179174804685Q21.924141650390624,33.19637917480469,21.924141650390624,32.620479174804686L21.924141650390624,29.580379174804687L20.075901650390627,29.580379174804687L20.075901650390627,32.620479174804686Q20.075901650390627,33.19637917480469,19.674121650390624,33.598179174804685Q19.272331650390626,33.999979174804686,18.696441650390625,33.999979174804686Q18.133941650390625,33.999979174804686,17.732151650390627,33.598179174804685Q17.330371650390624,33.19637917480469,17.330371650390624,32.620479174804686L17.316981650390623,29.580379174804687L16.325901650390627,29.580379174804687Q15.709831650390626,29.580379174804687,15.281261650390626,29.151779174804688Q14.852691650390625,28.723179174804688,14.852691650390625,28.10717917480469L14.852691650390625,19.18748917480469L27.147341650390626,19.18749917480469ZM24.040241650390627,13.763389174804688Q25.473241650390626,14.499989174804687,26.330341650390626,15.819189174804688Q27.187541650390624,17.138389174804686,27.187541650390624,18.705349174804688L14.799121650390624,18.705349174804688Q14.799121650390624,17.138389174804686,15.656261650390626,15.819189174804688Q16.513411650390626,14.499989174804687,17.959831650390626,13.763389174804688L17.008941650390625,12.008922174804688Q16.915191650390625,11.834815174804687,17.075911650390626,11.741064974804688Q17.250011650390626,11.660707774804688,17.343761650390626,11.821422174804688L18.308051650390624,13.589279174804688Q19.580371650390624,13.026779174804688,21.000011650390626,13.026779174804688Q22.419641650390624,13.026779174804688,23.691941650390625,13.589279174804688L24.656241650390626,11.821422174804688Q24.750041650390624,11.660708174804688,24.924141650390624,11.741065174804687Q25.084841650390626,11.834815174804687,24.991041650390628,12.008922174804688L24.040241650390627,13.763389174804688ZM30.428541650390624,20.299099174804688L30.428541650390624,26.05807917480469Q30.428541650390624,26.63387917480469,30.026841650390626,27.035679174804688Q29.625041650390624,27.437479174804686,29.049141650390624,27.437479174804686Q28.486641650390624,27.437479174804686,28.084841650390626,27.035679174804688Q27.683041650390624,26.63387917480469,27.683041650390624,26.05807917480469L27.683041650390624,20.299099174804688Q27.683041650390624,19.723209174804687,28.084841650390626,19.328119174804687Q28.486641650390624,18.933029174804688,29.049141650390624,18.933029174804688Q29.625041650390624,18.933029174804688,30.026841650390626,19.328119174804687Q30.428541650390624,19.723209174804687,30.428541650390624,20.299099174804688Z" fill="#FFFFFF" fill-opacity="1"/></g></g></g></svg>