<svg xmlns="http://www.w3.org/2000/svg" xmlns:xlink="http://www.w3.org/1999/xlink" fill="none" version="1.1" width="150" height="45" viewBox="0 0 150 45"><defs><clipPath id="master_svg0_1_446"><rect x="0" y="0" width="150" height="45" rx="0"/></clipPath><clipPath id="master_svg1_1_38"><rect x="11" y="13" width="19" height="19" rx="0"/></clipPath></defs><g clip-path="url(#master_svg0_1_446)"><g><g><rect x="0" y="0" width="150" height="45" rx="5" fill="#6072FF" fill-opacity="1"/></g><g><g><path d="M46.61979,31L48.82031,31L50.99479,22.2044C51.23568,21.0651,51.51562,20.0104,51.73698,18.897100000000002L51.8151,18.897100000000002C52.05599,20.0104,52.27734,21.0651,52.53776,22.217399999999998L54.7578,31L56.9974,31L60.0182,16.41667L58.260400000000004,16.41667L56.678399999999996,24.3594C56.418,25.9284,56.138,27.4974,55.8776,29.0859L55.760400000000004,29.0859C55.3958,27.4974,55.0768,25.9089,54.7188,24.3594L52.67448,16.41667L50.97526,16.41667L48.95703,24.3594C48.59896,25.9284,48.23438,27.4974,47.91536,29.0859L47.83724,29.0859C47.53776,27.4974,47.25781,25.9284,46.958330000000004,24.3594L45.41536,16.41667L43.514323,16.41667L46.61979,31ZM62.335899999999995,31L64.1784,31L64.1784,20.1667L62.335899999999995,20.1667L62.335899999999995,31ZM63.2539,17.985680000000002C63.976600000000005,17.985680000000002,64.4779,17.503909999999998,64.4779,16.768230000000003C64.4779,16.0651,63.976600000000005,15.58333,63.2539,15.58333C62.537800000000004,15.58333,62.056,16.0651,62.056,16.768230000000003C62.056,17.503909999999998,62.537800000000004,17.985680000000002,63.2539,17.985680000000002ZM67.7526,31L69.5951,31L69.5951,23.0312C70.6758,21.918,71.431,21.351599999999998,72.5508,21.351599999999998C73.9961,21.351599999999998,74.6146,22.224,74.6146,24.2878L74.6146,31L76.4375,31L76.4375,24.0469C76.4375,21.2539,75.39580000000001,19.75,73.1172,19.75C71.6328,19.75,70.4935,20.5703,69.4714,21.618499999999997L69.4323,21.618499999999997L69.2565,20.1667L67.7526,20.1667L67.7526,31ZM83.5404,31.4167C84.83590000000001,31.4167,85.9948,30.7201,86.8346,29.8802L86.8997,29.8802L87.056,31L88.5599,31L88.5599,14.97136L86.7174,14.97136L86.7174,19.151L86.8151,21.012999999999998C85.85810000000001,20.2318,85.0378,19.75,83.7552,19.75C81.2747,19.75,79.0547,21.957,79.0547,25.5182C79.0547,29.3464,80.819,31.4167,83.5404,31.4167ZM83.9375,29.8802C82.03649999999999,29.8802,80.9362,28.2917,80.9362,25.5898C80.9362,23.0312,82.33590000000001,21.293,84.07419999999999,21.293C84.97919999999999,21.293,85.819,21.625,86.7174,22.4714L86.7174,28.3503C85.819,29.3854,84.9401,29.8802,83.9375,29.8802ZM96.5547,31.4167C99.2174,31.4167,101.58070000000001,29.3203,101.58070000000001,25.6094C101.58070000000001,21.8724,99.2174,19.75,96.5547,19.75C93.89840000000001,19.75,91.5352,21.8724,91.5352,25.6094C91.5352,29.3203,93.89840000000001,31.4167,96.5547,31.4167ZM96.5547,29.8997C94.6797,29.8997,93.41669999999999,28.1875,93.41669999999999,25.6094C93.41669999999999,23.0247,94.6797,21.293,96.5547,21.293C98.4362,21.293,99.7188,23.0247,99.7188,25.6094C99.7188,28.1875,98.4362,29.8997,96.5547,29.8997ZM106.138,31L108.2604,31L109.8034,25.1992C110.0833,24.1641,110.2982,23.148400000000002,110.5391,22.0482L110.6432,22.0482C110.9036,23.148400000000002,111.099,24.1445,111.3789,25.1602L112.9414,31L115.1615,31L118.1042,20.1667L116.3398,20.1667L114.7643,26.4362C114.5234,27.4714,114.3216,28.4479,114.1003,29.444L114.0026,29.444C113.7422,28.4479,113.5013,27.4714,113.2409,26.4362L111.5417,20.1667L109.7578,20.1667L108.0586,26.4362C107.7982,27.4714,107.5573,28.4479,107.3424,29.444L107.2383,29.444C107.0234,28.4479,106.82159999999999,27.4714,106.6003,26.4362L104.97919999999999,20.1667L103.1172,20.1667L106.138,31ZM123.5078,31.4167C126.0729,31.4167,127.4531,29.9583,127.4531,28.1419C127.4531,26.0195,125.7279,25.362,124.1523,24.7435C122.9284,24.2682,121.8086,23.851599999999998,121.8086,22.8034C121.8086,21.918,122.4531,21.175800000000002,123.8333,21.175800000000002C124.7904,21.175800000000002,125.5521,21.6055,126.2878,22.165399999999998L127.1732,20.993499999999997C126.3529,20.3164,125.1484,19.75,123.8073,19.75C121.431,19.75,120.0703,21.1107,120.0703,22.881500000000003C120.0703,24.8021,121.7109,25.5443,123.2279,26.1237C124.4323,26.5729,125.7083,27.1133,125.7083,28.2461C125.7083,29.2161,125.0117,29.9974,123.5729,29.9974C122.2708,29.9974,121.3073,29.4635,120.3503,28.6562L119.4714,29.9193C120.487,30.7786,121.9714,31.4167,123.5078,31.4167Z" fill="#FFFFFF" fill-opacity="1"/></g></g></g><g clip-path="url(#master_svg1_1_38)"><g><path d="M18.909418349609375,23.666467216796875L18.909418349609375,30.568947216796875L11.678558349609375,29.572047216796875L11.678558349609375,23.666467216796875L18.909418349609375,23.666467216796875ZM18.909418349609375,15.788257216796875L18.909418349609375,22.775507216796875L11.678558349609375,22.775507216796875L11.678558349609375,16.785077216796875L18.909418349609375,15.788257216796875ZM29.321458349609376,23.666467216796875L29.321458349609376,32.00004721679687L19.704698349609373,30.674747216796874L19.704698349609373,23.666467216796875L29.321458349609376,23.666467216796875ZM29.321458349609376,14.357147216796875L29.321458349609376,22.775507216796875L19.704698349609373,22.775507216796875L19.704698349609373,15.682397216796875L29.321458349609376,14.357147216796875Z" fill="#FFFFFF" fill-opacity="1"/></g></g></g></svg>